<svg xmlns="http://www.w3.org/2000/svg" data-name="Layer 1" width="920.3" height="567.1" viewBox="0 0 920.29689 567.13599" xmlns:xlink="http://www.w3.org/1999/xlink"><polygon points="447.4,556.3 459.7,556.3 465.5,509 447.4,509 447.4,556.3" fill="#ffb6b6"/><path transform="matrix(1,0,0,1,-139.9,-166.4)" d="M 582.1 720.7 l 24.1 0 h 0 C 610.3 720.7 614.2 722.3 617.2 725.2 C 620.1 728.1 621.7 732 621.7 736.1 v 0.5 l -39.5 0 Z" fill="#2f2e41"/><polygon points="492.4,559.3 504.7,559.3 510.5,512 492.4,512 492.4,559.3" fill="#ffb6b6"/><path transform="matrix(1,0,0,1,-139.9,-166.4)" d="M 627.1 720.7 l 24.1 0 h 0 C 655.3 720.7 659.2 722.3 662.2 725.2 C 665.1 728.1 666.7 732 666.7 736.1 v 0.5 l -39.5 0 Z" fill="#2f2e41"/><polygon points="541,344.3 511,529.3 491,528.3 491.5,358.4 541,344.3" fill="#2f2e41"/><path transform="matrix(1,0,0,1,-139.9,-166.4)" d="M 596.1 464.2 l 72.7 1 l 8.1 55.5 l -49.5 23.2 L 605.9 700.7 l -19 -1 l -6.9 -194.1 Z" fill="#2f2e41"/><circle cx="492.6" cy="124.3" r="22.2" fill="#ffb9b9"/><polygon points="511,150.3 523.9,166.7 517.8,292.9 470.4,291.9 462.3,181.9 472.4,153.6 476,147.3 511,150.3" fill="#e4e4e4"/><path transform="matrix(1,0,0,1,-139.9,-166.4)" d="M 671.8 380.6 l 11.1 42.4 l -11.1 42.4 l 18.2 24.2 l 16.1 -76.7 s -12.1 -62.6 -13.1 -69.6 s -3 -8.1 -3 -8.1 l -8.1 1 Z" fill="#2f2e41"/><polygon points="453.2,231.3 446.1,244.4 444.1,266.6 448.2,291.9 434,315.1 419.9,251.5 435,169.8 441.1,169.8 453.2,231.3" fill="#2f2e41"/><path transform="matrix(1,0,0,1,-139.9,-166.4)" d="M 609.3 293.4 l -0.5 9 s -6.5 -14.7 -7.5 -29.9 s 16.1 -18.2 26.2 -19.2 S 654.7 259.4 654.7 267.5 s -18.2 6.1 -25.2 4 s -10.1 15.1 -10.1 15.1 l -4 1 Z" fill="#2f2e41"/><path transform="matrix(1,0,0,1,-139.9,-166.4)" d="M 676.8 394.7 l -4 38.4 l 8.1 23.2 l 5 22.2 s 0 21.2 -20.2 22.2 s -78.7 -1 -78.7 -1 s -8.1 -1 -15.1 -17.2 s 14.1 -31.3 14.1 -31.3 l 6.1 -21.2 L 590 403.8 l -14.1 -68.6 l 41.9 -21.7 l 10.6 103.4 l 22.7 -100.4 l 7.6 5.6 l 32.3 13.1 Z" fill="#2f2e41"/><polygon points="613.7,567.1 356,567.1 356,565 614.1,565 613.7,567.1" fill="#3f3d56"/>
</svg>